<svg class="icon" viewBox="0 0 1024 1024" version="1.1" xmlns="http://www.w3.org/2000/svg"><path d="M315.7 556c-2-2.3-4.4-4.2-6.2-6.5-2.4-3.2-4.3-2.2-6.3 0.3-3.3 2.9-6.9 5.4-9.3 9.2l0.3 0.4-0.3-0.4c-2.3 0.7-3.6 2.5-4.9 4.4-6.5 5.8-13.4 11.1-19.1 17.7-3.9 3.5-7.9 7-11.8 10.5-2 0.6-2.7 2.5-4.1 3.7-7.2 5.8-14.1 11.9-21.6 17.2-20.3 14.7-42.2 18.8-65.8 8.6-10.3-4.5-19.3-11.2-28.5-17.6-2.5-4.6-6.7-7.4-10.5-10.6-23-21.8-42.9-46.3-62-71.6 7.9 30.9 28.7 53.3 49.4 75.8 1 2.4 3.1 3.7 5 5.2 1.3 2.3 3.2 3.9 5.4 5.3 15.1 14.8 31.4 27.9 51.4 35.8 1.9 1.4 4 1.8 6.3 1.5 0.8 0.1 1.5 0.3 2.3 0.5 1.1 0.4 2.3 0.8 3.4 1.2 8.3 2.3 16.6 2 24.9 0l2.7-0.6c9.4-1.6 18.3-4.1 26-10.1 4.4-1 8-3.4 11-6.6 1.6-0.2 2.8-1.1 4-2.1 20.1-16 38.9-33.6 57.8-51 3.4-3.1 8.4-6.2 9.2-10 0.6-4.6-5.7-6.8-8.7-10.2z m-195.5 34.5l-0.6-0.3c0.3 0.1 0.5 0.2 0.6 0.3z m-1.1-0.6c0.1 0 0.1 0.1 0.2 0.1-0.1-0.1-0.1-0.1-0.2-0.1z m-1.8 7.2c0.8 0.3 1.6 0.7 2.4 1.1-0.8-0.4-1.6-0.8-2.4-1.1z m2.4 5.1s0.1-0.1 0 0c0.1-0.1 0 0 0 0zM95.6 473c2.7 2.3 5.5 3 7.4-0.1 3.6-6 9.6-9.2 14.4-13.7 3.7-3.5 7-7.5 10.4-11.3 1.4-0.4 2.2-1.4 2.7-2.7 7.1-2.4 10.4-9.2 16.1-13.3 6.7-5.8 13.4-11.7 20.1-17.5 0.5-0.5 0.9-1 1.4-1.4 3.9-1.2 6.7-3.9 9.5-6.7 1.6-0.7 3.3-1.2 4.8-2.1 14.6-8.3 29.8-10.9 46.2-6.6 9.8 2.6 18.4 7.2 26.8 12.4l5.1 4.2c0.7 1.7 2.4 2 3.8 2.6 5.8 5.9 11.9 11.5 18.9 16.1 1.4 4.4 5.3 6.5 8.5 9.3 1.2 1.4 1.9 3.3 3.8 4 1.2 1.3 2.5 2.7 3.7 4 1.1 1.8 2.2 3.4 4.2 4.2 1.5 2.1 3 4.2 4.6 6.3 7.4 9.5 14.9 19 22.4 28.6 2.9 4.3 5.2 9.2 10.7 13.3-1.3-5-0.6-8.8-2.7-12.1 0.3-2.2-0.8-4-1.8-5.6-11.2-19-23.8-37-39.2-52.8l-0.1-0.1c-1-1.1-1.9-2.2-2.9-3.3-7.7-8-14.4-17.2-24.4-22.7-0.3-2.2-2.1-3.2-3.6-4.6-5.3-5.1-12.2-7.8-18-12.1-10.4-7.7-21.8-13.5-34.7-14.2-19-1.1-36.9 2-53.8 13-14.2 9.2-26.7 20.1-39.1 31.3-1.4 0.3-2.5 1-2.7 2.5l-0.1 0.1c-3.8 0.6-4.9 4-6.7 6.7-10.6 6.2-18.2 15.9-27.2 24-2.5 2.2-2.9 5-0.6 6.9 4.7 4 7.5 9.4 12.1 13.4z m187.9-45.3z m-166-2.1v0z" fill="#008ED7"></path><path d="M292.8 461.5c-2.4-1.7-3.3-5-6.5-5.8-0.4-2.6-2-4.1-4.3-4.9-1.5-0.7-1.5-3.3-3.8-3-9.3-10.4-19.7-19.3-32.4-25.5-1.9-3-5-2.5-7.9-2.9-6.5-5.7-23-7.1-31.3-2.7v-0.1c-1.1 0-2.2 0-2.6 1.5-10.5 1.1-17.5 7.9-24.4 14.8-0.4 0.3-0.8 0.6-1.1 0.9l-0.5 0.1-0.1 0.5c-0.5 0.1-0.8 0.5-0.8 1-9.8 6.7-18 15.1-26.4 23.4-0.3 0.1-0.5 0.3-0.4 0.6-2.5 0.7-3.9 2.6-5.3 4.6-0.4 0.5-0.9 0.9-1.3 1.4-1.3 0.4-2.2 1.3-2.6 2.6-8.4 6.8-16 14.4-23.5 22.2-1.3 1.4-3.1 2.9-0.8 5.1 5.1 4.8 10.2 9.7 15.4 14.3 1.8 1.6 4.3 3.6 6.6 1.8 10.7-8.4 21.1-17.2 29.3-28.2-0.1-0.6-0.1-1.1-0.2-1.7 0.1 0.6 0.1 1.1 0.2 1.7 5-1.9 8.7-5.6 12-9.6 1.7-0.2 1.4-2.2 2.6-2.9 3.6 0 3.7-4.4 6.6-5.2 1.3-0.5 2.4-1.3 2.9-2.7 2.2-1.4 4.6-2.5 5.5-5.2 0.9-0.2 2-0.1 2.2-1.4l0.3-0.1v-0.4c1.7-0.8 3.4-1.7 4.2-3.5 1.7-2.4 4.2-3.9 6.6-5.4 1.7-0.3 3.1-1.1 3.9-2.7l0.1-0.1c13.9-7.1 27.4-7.3 40.7 1.9 7.9 5.5 15.2 11.8 22.5 18l13.2 12.3c0.6 0.9 1.2 1.8 1.9 2.6 5.8 6 12 11.8 17.5 18 8.8 9.9 16.4 20.9 24.5 31.5 1.4 1.8 3.4 3.2 4.2 0 0.9-3.8 1.6-7.9-1-11.6-13.7-19.8-28.7-38.3-45.7-55.2z m-45.6-31.1zM193 450.2c-0.3-0.1-0.6-0.4-0.9-0.4 0.3 0 0.6 0.3 0.9 0.4z m-24.7 24.5z m1.1 1.4c0.4 1 1 2 1.2 2.9-0.2-0.9-0.9-1.9-1.2-2.9-0.5-0.4-0.9-0.7-1-1.1 0.1 0.4 0.4 0.8 1 1.1z m0-4c-0.3-0.5-0.4-1-0.5-1.5 0 0.5 0.2 1 0.5 1.5z m-16.7-4.8s0.1 0 0 0c0.1 0 0 0 0 0z m120.5-14.9c0.1 0.6 0.3 1 0.5 1.4-0.2-0.4-0.3-0.8-0.5-1.4z" fill="#008ED7"></path><path d="M83.4 527.1c0.9-0.1 1.8-0.1 2.7-0.2-0.9 0.1-1.8 0.1-2.7 0.2 2.9 1.4 2.7 5.2 5.4 6.8 0.2-0.4 0.3-0.8 0.3-1.2l-0.3 1.2c0.4 0.4 0.8 0.9 1.3 1.3 8.9 11.7 18.7 22.6 29.7 32.5l3.9-0.3c0.1-1.5 0.8-2.4 2.1-2.6-1.3 0.2-2 1.2-2.1 2.6l-3.9 0.3c4.2 5.2 8.9 9.8 14.5 13.5 8.9 8.5 18 16.6 29.8 21 10.8 8.1 33.8 7.5 45.8-1.1 3 0.2 5-1.6 7-3.3 6.4-5.4 13-10.6 19.2-16.2 4.4-4 9.6-7.2 12.7-12.6 4.8-2.9 8.9-6.8 12.6-11 0.4-0.1 0.6-0.3 0.6-0.7h0.1c5.4-4.5 10.4-9.5 14.8-15.1 0.6-0.1 1.4-0.1 1.9-0.4 13.6-10.1 13.7-11.8 0.9-22.8-0.2-2.2-2.2-2.7-3.5-3.8-4.4-3.6-8.7-6.5-13.7-0.2-3.4 4.1-8 7.2-12 10.8-18.2 17-36.7 33.7-55.6 49.9l-5.4 3.6c-10.4 5.3-21.1 6.3-32 1.7-6.4-2.6-11.3-7.5-17.2-11-2.7-3.3-6-6-9.6-8.1l-33.6-33.3c-0.2-1.9-1.2-3.3-3-4.2-2.6-3.6-5.2-7.1-9.2-9.5-4.2-8.1-11.7-13.8-15.7-22-0.5-1.1-2.8-1-2.9 0.8-0.2 3.9-1.9 8.1 0.7 11.7 5.3 7.2 10.9 14.4 16.4 21.7z m195.2 1.7c0.3 0.1 0.6 0.4 0.9 0.4-0.3-0.1-0.6-0.3-0.9-0.4z m-71.7 69.4z m-74.6-24.9c0.3 0.3 0.5 0.6 0.7 1.2-0.2-0.5-0.4-0.9-0.7-1.2z m-1.1-0.5c-0.2 0-0.5-0.1-0.7-0.1 0.2 0.1 0.5 0.1 0.7 0.1zM87.7 528c-0.1-0.1-0.2-0.1-0.3-0.2 0.1 0.1 0.2 0.1 0.3 0.2z m3.8 5.8z m4.1-1.3c0-0.9-0.5-1.8-1.5-2.8 1 0.9 1.5 1.9 1.5 2.8z" fill="#008ED7"></path><path d="M652.7 394.2l-103.3 0.3c-1.4 0-3.2-0.8-4.3 1-1.8 1-1.1 2.8-1.1 4.2 0 36.4 0.1 72.8-0.1 109.2 0 4.7 1.7 5.7 5.8 5.6 19.7-0.1 39.3 0.1 59 0 13.6 0 27.2 0.4 40.8-0.8 2.4 0.5 4.7 1.7 7.1 0.1 1.7-0.7 1.4-2.1 1.4-3.4 0-37.1 0-74.2 0.1-111.3-0.1-4-1.8-4.9-5.4-4.9zM546 499.7c0 0.3-0.1 0.7-0.1 1 0-0.3 0.1-0.6 0.1-1z m16 3.4c-3.8 0-5-0.7-5.3-5-1.9-25.8 0.5-51.6-0.4-77.3-0.1-1.8 0.2-3.6-0.1-5.4-1.3-9.2-1.3-9.2 8-9.2 24.4 0 48.7 0.3 73.1-0.2 6.6-0.1 8.4 2.1 8.3 8.2-0.3 13.6-0.1 27.3-0.1 40.9h-0.2c0 14.1-0.1 28.2 0.1 42.2 0.1 4.2-1.1 5.8-5.7 5.8-25.8-0.2-51.7-0.2-77.7 0zM687.2 489.2c4 3.3 4.5-1.9 5.7-3.8 3-4.6 5.4-9.7 8.1-14.6 2.6 1.5 1.2 4 1.3 6 0.1 11.4 0.4 22.8-0.1 34.2-0.3 6.2 1.7 8.2 7.6 6.6 5 1.3 4.9-1.9 4.9-5.3v-49.8c4 3.5 6.8 5.9 9.6 8.2 3.3 2.8 5.8 1.2 7.7-1.8 1.5-2.4 5-4.6 0.2-7.8-5.5-3.7-10.2-8.4-15.3-12.6-2.1-1.8-2.9-4.1-2-6.6 0.9-2.4 3.1-2.1 5.2-2.1 2.7 0 5.4-0.2 8 0 3.9 0.4 4.4-1.6 4.2-4.8-0.2-2.9 0-5.4-4.1-4.9-2.7 0.3-5.4 0.2-8 0-2.1-0.2-4.5-0.5-5.4-2.9-3.7-9.9 0.7-17.1 11.2-18.4 4.7-0.5 6.7-2.1 5.7-7.3-0.9-5.2-2.9-6.9-8-5.2-11.6 3.9-23.9 4.3-35.9 5.9-2.7 0.4-3.2 1.2-3.2 3.7 0 8.3 0.8 9 9.1 7.1 2-0.5 3.9-0.8 5.9-1.1 1.4-0.2 3.3 0.1 3.3 1.5 0 4.8 0.4 10-1.2 14.3-0.9 2.6-5.7 1-8.8 1-9.9 0-9.9-0.1-9 9.9 1.4 5.2 5.5 1.4 8.1 2.5 2.6 1.1 7-2.6 7.8 3-4.6 12.1-10.2 23.8-17.2 34.7-3.9 6 1.7 8 4.6 10.4z" fill="#048ED1"></path><path d="M803.1 454.7c-6-0.2-11.9 0-17.9 0-3.6 0-8.5 1.6-7.1-5.4 0.3-1.4-1.9-1.3-3.2-1.2l-2.4-0.3c-3.5-2.2-1-2.9 0.9-4.2 11.7-8.1 22.1-17.4 29.7-29.6 2.3-3.8 1.9-8 1-11.6-0.9-3.4-5-1.3-7.7-1.4-10.7-0.4-21.4-0.4-32.1-0.5 2.2-4.8 4.1-9.4-4-10.1-0.5-0.1-0.9-0.3-1.4-0.4-1.1-1.4-2.4-1.1-3.2 0.1-2.7 4.4-5.1 8.8-7.7 13.2-3.1 3.7-6.2 7.3-9.4 11-2.7 2.4-5.5 4.9-8.1 7.3-1.2 1.1-2.3 2.3 0.1 3.3 6.9 6.4 7 6.4 13.4 0.4 0.8-0.7 1.2-2 2.1-2.5 4.5-2.8 5.7-10.1 11-10.6 10.2-0.9 20.6-1.7 31.6 1.2-2.6 3.1-4.7 5.6-6.9 8-8.8 9.6-8.9 9.6-19.5 1.7-0.4-0.3-0.8-0.4-1.2-0.6-3.8-2.1-7.6-2.4-10.5 1.2-3.5 4.4 1.5 5.8 3.5 7.6 6.5 6 6.7 5.9-0.7 11.2v0c-3.5-0.5-6.7 0-8.4 3.7-1.3-1.4-2.5-0.8-3.7 0.3-2-0.2-3.8-0.1-4 2.5h-0.1c-0.4-0.1-0.9-0.1-1.3 0.1-1.7 0-5.1-1.4-3.8 1.8 1.4 3.4 3.6 8.6 8.2 7.7 4-0.7 8.6-2.1 11.8-5.5 3.1-1.1 6.1-2.2 9.2-3.3 1.7 0.4 1.5 1.6 1.4 2.9 1.8 1 3.6 2 5.5 3-1.8-1-3.6-2-5.5-3-1.3 0.6-2 1.7-2.4 3-4.6 4.8-9.1 9.7-13.7 14.5-4.9 3.4-9.9 6.9-14.8 10.3-7.1 5.4 1.4 5.9 2.8 8.7h0.1c1.7 2.2 3.5 2.7 5.3 0.2 5.5-1.7 9.9-5 13.5-9.5 3.8-2.5 7.8-4.7 9.6-9.3h-0.1c0.4-0.5 0.9-1 1.3-1.5 4.3-2.4 8.6-4.6 13.9-3.9 4.1 0.5 8.3-0.1 12.4-0.2 2.2 0.6 3.8 2.1 5.3 3.6-3.9 7.9-10.1 13.9-15.8 20.3v0c-0.6 0.4-2.1 0-1.5 1.6-0.4 0.4-0.8 0.7-1.2 1.1-2.8 0.5-5.5 0.5-7.1-2.5-1.5-1.5-2.3-3.9-4.9-4.2 0-0.5-0.2-0.9-0.5-1.2-2.3-1.7-4-6.7-7.8-1.6-0.8 0.8-1.6 1.5-2.3 2.3-4.6 4.4 1.2 4.8 2.6 7 0.2 0.4 0.5 0.6 0.9 0.6 0.4 2.6 2.4 3.9 4.3 5.2h0.1c0 4.9-5.4 2.6-7.1 5.2-1.5 0.2-3.1 0.4-4.6 0.6l-19.2 3.6c-1.3 0.1-2.6 0.2-3.9 0.4-2.8 1.6-1.6 3.3-0.1 5.1 0.3 0.8 0.5 1.6 0.8 2.4 0.5 2 1.8 3.3 3.8 2.8 6.5-1.6 13.6-0.3 19.7-3.9 1.5-0.2 3.2 0.5 4.1-1.3 0.8-0.1 1.6-0.2 2.5-0.3l6.3-1.8 3.3-1.8c0.8-0.2 1.6-0.5 2.4-0.7 1.7-0.1 2.9-1.3 4.2-2.3 3.9-1 6.9-3.4 9.5-6.4 1.6-0.3 1.4-1.6 1.5-2.8 8.9-2.1 19.4-15.7 19.8-25.6 3-4.5 3.6-9.4 2.7-14.6-1.2-2.4-3.6-1.1-5.3-1.1z m-50.4 15.5c0 0.3-0.1 0.7-0.1 1 0-0.4 0.1-0.7 0.1-1z m4.2 4.3c0.4-0.3 0.9-0.7 1.3-1-0.5 0.4-0.9 0.7-1.3 1z m9.2 24c0-0.2-0.1-0.3-0.3-0.4 0.2 0.1 0.3 0.2 0.3 0.4z m-0.4-0.5c0-0.1 0-0.1 0 0 0-0.1 0-0.1 0 0z m7.8 0.9c-0.5-0.8-1.1-1-1.6-1 0.5-0.1 1.1 0.2 1.6 1 0.6 0.2 1.1 0.5 1.7 0.7-0.6-0.3-1.1-0.5-1.7-0.7z m25.2-33.9c0.1 0.3 0.2 0.6 0.2 0.9 0-0.2-0.1-0.5-0.2-0.9z m-26.9-10c-0.1-0.4-0.3-0.8-0.5-1.1 0.2 0.4 0.3 0.7 0.5 1.1z m-18.9-3.8c0.9-0.8 2.3-1.2 3.2-2-0.9 0.8-2.3 1.1-3.2 2z m5.7-4.7h2.8c0.5-0.7 1.2-1.1 1.9-1.2-0.7 0.1-1.3 0.5-1.9 1.2h-2.8z m12.3 6.8c-0.4-0.6-1-1.1-1.8-1.6 0.8 0.5 1.4 1 1.8 1.6z m26.7 9.3c0.2 0.3 0.3 0.7 0.5 1-0.1-0.3-0.3-0.7-0.5-1zM745.8 550.2c0.1-1 0.3-2.1-1-2.8-4.4-2.4-13.6 0.9-15.6 5.8-5.5 13.4-10.9 26.8-16.4 40.2-0.5 1.3-0.7 3.4-2.6 3.4-1.4 0-1.9-1.5-2.3-2.9-3.7-11.9-9.1-23.1-13.9-34.5 0.2-1 0.1-1.9-1.2-2.3-2.3-1.4-0.2-4.6-2.5-6-0.4-1.6 0.1-3.9-2.8-3.7-2.8-0.1-5.6-0.2-8.4-0.2-2.6 0-4.3 0.9-2.6 3.9-1.3 0.5-1.1 1.6-0.9 2.6 0 1-0.1 2-0.1 2.9-0.8 9.8-0.7 19.7 0 29.5-0.1 8.2-0.2 16.3-0.4 24.5-0.2 5.9 2.5 8.4 7.8 6.3 4.6-1.8 1.8-6 2-9.2 0.3-10.8 1.4-21.5 0-32.3 0.1-2.3 0.2-4.6 0.2-6.9 0.1-2.5 1.3-1.3 2.3-0.8 4.4 11.8 8.9 23.5 14.7 34.7 0.4 4.3 3 7.7 4.3 11.7 0.6 1.8 1.7 3 3.8 3 2.7 0 4-1.4 4.1-4l0.1-0.2c1.1-0.5 1.2-1.5 1.1-2.6 0.3-0.4 0.4-0.8 0.3-1.3 2.4-2.7 3.2-6 3.8-9.5 0.2-0.4 0.3-0.7 0.2-1.1 1.6-0.9 2.4-2.3 2.4-4.1 4.9-8.8 6.9-19 13.4-28.8v47.3c0 2.3 0 5.2 3.3 4.2 2.6-0.8 7.1 0.7 6.9-4.8-0.3-8.7-0.3-17.4-0.4-26 0-1.8 0-3.6 0.1-5.4 1.5-10.2-0.8-20.4 0.3-30.6z m-66.2 6.3c2.2 0 4.3-0.1 6.5-0.1 0.9 0.4 1.8 0.7 3.5 1.4-1.6-0.6-2.5-1-3.5-1.4-2.2 0.1-4.3 0.1-6.5 0.1-0.1-2.4-1.7-2.6-3.4-2.7 1.7 0.1 3.3 0.4 3.4 2.7zM691 563c-0.4-0.2-0.7-0.3-1.1-0.5 0.4 0.1 0.7 0.3 1.1 0.5zM523.3 580.8c-0.8-12.1-9.8-18.4-21.4-15.8-3.3 0.7-6.5 2.6-10.5 4.2 0-7.9-0.2-15.1 0.1-22.4 0.1-4.1-0.2-6.5-5.5-6.5-5.1 0-5.1 2.4-5.1 6.1 0.1 21.2 0 42.4 0.1 63.7 0 7.8 1.8 8.9 9.5 5.7h0.1c2-9.9 0.8-19.8 0.5-29.8v-2.1c2.5-6.9 9.3-11.2 15.8-9.8 7.2 1.7 6.2 7.7 6.3 12.9 0.1 8.5 0.2 17 0 25.5-0.1 3.5 1.3 4.9 4.7 4.7 2.9-0.1 5.9 0.2 5.8-4.3-0.3-10.7 0.3-21.4-0.4-32.1zM934.3 565.6c-8.8-3-17.1-0.3-23.5 7.2-7.3 8.6-8.3 25.2-1.9 34.9 0 3.8 3.2 4.5 5.7 6 0.1 0.2 0.3 0.4 0.6 0.5l0.2 0.2c8.7 5.3 18.1 3.4 27.3 2.1 3.8-0.6 4.7-4.2 3.6-7.4s-3.5-0.9-5.5-0.6c-13.5 1.8-21.8 0.5-25.5-9.6-1.4-3.6-0.9-4.7 2.8-4.7h22.1c8.5 0 8.7 0 7.8-8.7-0.9-11.6-4.7-16.9-13.7-19.9z m3 17.8c-0.7 3.4-4.1 1.3-6.2 1.9-1.4 0.4-3.1 0.1-4.7 0.1v0.2h-4c-2.2-0.1-5.2 0.5-6.2-1.4-1.1-2.2 1-4.7 2.4-6.6 2.9-4.1 11.4-4.9 15.3-1.7 2.2 1.8 4 4.6 3.4 7.5zM914.4 448.5c0.1-1.8 0.3-3.5 0.4-5.3 1-17.5-1.7-14.5 16.8-14.8h1.1c1.1 0.3 2 0.7 2.6 1.4 0.5 0.8 0.7 1.9 0.7 3.4-0.1 8 0 16.1 0.1 24.1-0.6 11.1-1 22.2-1.7 33.3-0.7 10.2-6.3 14-15.9 11.2-5.3-1.5-6.6-0.1-6.3 5.2 0.4 5.7 2.8 7.8 8.3 6.9 2.4-0.4 4.9-0.2 7.3-0.3 10.4 0.3 14.8-2.7 17.5-12 0.3-0.6 0.9-1.1 0.9-1.7 2.1-26.5 2.8-53.1 3.1-79.7 0.1-4.7-3.1-4.1-5.9-4.1-7.8 0-15.6 0-23.4 0.1-3.4 0-4.8-1.2-4.6-4.8 0.3-5.6-0.1-11.2 0.2-16.8 0.4-5.8-3.6-4.5-6.7-4.5s-7.1-1.4-6.7 4.4c0.3 4.9-0.3 9.9 0.2 14.7 0.5 4.8-1.3 7-5.9 7.4-1.2 0-2.5 0.1-3.7 0.1-3.3-0.4-7.1-2.3-7 4 0.1 4.6-0.1 8.4 6.4 7.3 3.2-0.5 6.6-0.1 9.8 0.9 0.4 9.8-0.2 19.5-0.9 29.3-1.6 20.4-8.9 37.6-25.8 49.8-2.4 1.8-2.2 2.9-0.7 4.6 5.4 6.7 10.6 6.3 17-0.3 17.5-17.7 22.5-39.9 22.8-63.8z m3-22.2c0.1-0.2 0.2-0.4 0.4-0.6-0.2 0.2-0.3 0.4-0.4 0.6z m-1.6 1.3c0.5 0 0.9-0.1 1.4-0.1-0.5 0-1 0.1-1.4 0.1-2.4-2.3-5-1.2-7.5-0.4-0.6 0.2-1.1 0.4-1.7 0.5 0.6-0.1 1.1-0.3 1.7-0.5 2.5-0.8 5-1.9 7.5 0.4zM827.3 567.4c-1.4-0.1-2.8-0.1-4.2-0.2 0-0.4 0-0.8-0.1-1.1-0.3-0.1-0.6-0.2-0.9-0.4 0.3 0.2 0.6 0.3 0.9 0.4 0.1-5.1 0.5-10.1 0.1-15.1-0.3-3.4 1.9-7.3-1.4-10.3H814c-2.5 0.8-1.5 3-1.5 4.5-0.1 22.4-0.1 44.9 0 67.3 0 1.5-0.4 3.2 1.4 4.1 2.4-0.2 5.9 2.6 6.7-2.3-0.5-0.5-1-1-1.4-1.5 0.5 0.5 1 1 1.4 1.5 2.1-1.4 3.2 0.8 4.7 1.2 3.8 0.9 7.2 4 11.5 1.6 0.9-0.1 1.7-0.3 2.6-0.4 0.1-0.8 0.3-1.5 0.6-2-0.3 0.5-0.5 1.2-0.6 2 1.9 0.2 3.9 1 5.4-1.1 1.8-0.1 3.3-0.8 4.1-2.6 10.2-7.8 10.4-18.9 8.8-30-2.1-12.7-18.4-24.1-30.4-15.6z m-10.6 13.1v-0.9 0.9c-0.1 1.2-0.5 2.2-2.1 2.7 1.6-0.5 2.1-1.5 2.1-2.7z m-2.8 5.7c0-0.9 0-1.9 0.1-2.8 0.2 0 0.4-0.1 0.6-0.1-0.2 0.1-0.4 0.1-0.6 0.1-0.1 0.9-0.1 1.9-0.1 2.8 1.6 4 1.6 8 1.4 12.1 0.1-4.1 0.1-8.1-1.4-12.1z m27.1 27.4c0.5-0.3 1-0.4 1.6-0.5-0.6 0-1.1 0.2-1.6 0.5z m4.9-11.4c-3.6 6.2-9.2 7.6-15.8 6.5-1.4 0.5-2.9 1.1-4.3 1.6 1.4-0.5 2.9-1.1 4.3-1.6-5.6-2.3-8.1-6.2-7.2-12.5 0.5-3.3 0.1-6.7 0.1-10-0.1-9 2.1-11.6 10.1-12.3 7.5-0.7 13.3 4 14.1 11.9 0.6 5.5 0.7 11.1-1.3 16.4zM596.2 580.3c-0.1-5-1-9.7-6.6-11.7-5.3-4.6-11.6-1.9-17.5-2.4-0.8 0.3-1.6 0.7-2.4 1-2.7 0.8-5 5-8.2-0.5-1.8-3.1-6.8-0.5-6.8 3.6-0.1 13.6-0.1 27.3-0.3 40.9 0 3.7 0.1 6.3 5.2 6.2 5.2-0.1 5.1-3 5-6.5-0.3-8.7-0.3-17.4 0.1-26.1 0.3-7.3 5.4-9.3 10.9-10.6 5.5-1.4 9.4 1.3 11.3 6.7 0.1 9.8 0.2 19.6 0.2 29.4 0.2 2.9-2.3 6.7 3.8 7 5.9 0.3 5.7-3 5.7-7-0.2-10-0.1-20-0.4-30z m-3.8 27.6s0.1 0 0 0c0.1 0 0 0 0 0z m0.7-0.3c0.4-0.4 0.4-1.2 0.4-1.8-0.1-1.1 0.1-2.4-1-3 1.1 0.5 0.9 1.9 1 3 0 0.7 0 1.5-0.4 1.8zM897.1 579.4c-0.1-11.6-0.2-23.2 0-34.8 0.1-4-1.8-4.2-4.9-4.2-3 0-5.3 0.1-5.3 4 0 22.7 0.1 45.4 0 68.1 0 4.1 1.9 4.7 5.3 4.7 3.8 0.1 5-1.3 4.9-5.1-0.1-10.8 0-21.8 0-32.7zM831.5 412.8c0.4 0 0.7-0.1 1.1-0.1-0.4 0.1-0.7 0.1-1.1 0.1 0.2 1 1 1.4 1.9 1.4 16 0 32.1 0 48.1 0.1 4.7 0 3.3-3 3.2-5.4 0-3.6 1.9-8.6-5.2-6.7-15.7-0.5-31.3-0.8-46.9 0.3-2.6 3.2-0.9 6.9-1.1 10.3z m1.1-1.4c0-0.6 0.1-1.2 0.6-1.2-0.5 0-0.6 0.6-0.6 1.2z" fill="#048ED1"></path><path d="M832.6 447c3-0.6 6.2-0.3 9.3-0.4 4.6 0.4 4.5 3 3.4 6.6-4.8 14.6-9.7 29.1-18 42.1-2.3 3.5-0.3 5.9 0.8 8.6 1.4 3.3 4.3 1.7 6.4 1.2 3.9-0.8 7.6-2.1 11.4-3.3 12.2-3.8 24.8-4.6 37.3-6.7 3.4-0.6 3.4-2.3 2.4-4.7-3.7-8.5-7.6-17-11.3-25.5-1.3-3-2.4-3.8-5.9-2.6-5.6 2-8 4.2-4.4 10 1.7 2.8 2.7 6 4.1 9 0.9 1.9 1.7 4.4-1 5-8.1 1.6-16 4.8-25.1 5 3.6-5.5 6.1-10.7 8.1-16.1 3.4-9.4 7.2-18.7 10.8-28 0.2-0.1 0.4-0.3 0.6-0.4-0.2 0.1-0.4 0.2-0.6 0.4 1.8 0.1 3.6 0.9 5.2-0.6 6.2 0.1 12.4 0 18.6 0.3 5.3 0.3 3.9-3.5 4.1-6.3 0.1-2.5 0.9-5.3-3.6-5.1-8.6 0.4-17.2 0.3-25.9 0.3h-4.1v1.2h4-4v-1.2c-8.5-0.1-16.9 0-25.4-0.3-3.4-0.1-3.9 1.4-4.1 4.4-0.2 5.2 0.6 8.4 6.9 7.1z m24.1 2.1v-0.7 0.7z m3.9-5.1c-0.4 0-0.8 0-1.3-0.2 0.5 0.2 1 0.2 1.3 0.2z m-5.2 3.8l-1.4 1.4c0.4-0.5 0.9-0.9 1.4-1.4zM873.6 566.4c-2.1 2.7-8-3.5-7.3 3.5 0 15.2 0 30.5 0.1 45.8 3.6 1.5 9 3.9 9.3-2 0.8-14.8 0.2-29.8 0.1-44.7 0-1.4-0.9-4.2-2.2-2.6zM870.9 545.8c-5.5-0.4-4.5 2.9-4.9 6.2-0.6 5 2.4 4.4 5.7 4.7 4.9 0.4 4.9-2.4 4.4-6.2 1.2-4.4-1.5-4.4-5.2-4.7zM538 546.1c-4.8-1.7-4.4 1.6-4.7 5-0.4 4.5 1.3 5.5 5.6 5.6 4.4 0 5-1.7 5-5.4 0.1-4.4-1.1-6.3-5.9-5.2zM403.2 481.1c10.9 0.1 21.8 0.2 32.8 0.2 14.7 0 14.7 0 15.1 15 0 0.4 0.2 0.9 0.3 1.3-0.1 3.6-0.2 7.1-0.2 10.7 0 11.3-1.1 9.3 9.5 9.5 0.4 0 0.9-0.2 1.3-0.3 3.8 0 2.5-2.9 2.6-4.8 0.1-8.2 0.6-16.4-0.1-24.5-0.5-5.9 2-7.3 6.9-7.1 13.8 0 27.5 0 41.3 0.1 2.6-1 1.7-3.4 1.7-5.2 0.1-19.2 0.1-38.3 0-57.5 0-1.4 0.9-3.2-1.3-4H466c-0.3-0.2-0.7-0.3-1.1-0.3-0.5 0-1.1 0.1-1.6 0.1-0.8 0.8-1.3 1-1.7 0.9-0.1 0-0.2-0.1-0.3-0.2-0.1-0.1-0.2-0.2-0.2-0.4 0.1 0.1 0.1 0.3 0.2 0.4 0.1 0.1 0.2 0.2 0.3 0.2 0.4 0.1 0.9-0.1 1.7-0.9 0.5 0 1.1-0.1 1.6-0.1-0.1-6.6-0.3-13.3-0.3-19.9 0-2.9-0.4-4.9-4-4-9.5-0.5-9.5-0.5-9.5 8.7 0 4.2 0.2 8.3 0.2 12.5-0.1 0.5-0.1 0.9-0.2 1.4-2.7 2.6-6.3 0.6-9.3 1.6h-39c-1.5 0.3-1.3 1.6-1.3 2.6v60c0.1 1.5-0.2 3.2 1.7 4z m8-18.5c0-0.4-0.1-0.8-0.1-1.2 0 0.4 0 0.8 0.1 1.2z m12.5 9.4c8.7 0.7 17.5-0.2 26.2 0.1-8.7-0.3-17.5 0.6-26.2-0.1z m18.7-2.8c-9.1 0-18.2-0.1-27.2-0.2 0-0.4-0.1-0.8-0.4-1.1-1.7-0.7-2.6-1.8-3.1-3 0.5 1.2 1.4 2.3 3.1 3 0.1-12 0.1-24 0.2-36 0-2.3-0.8-5 1.6-6.8-1.5-1.4-1.9-3-1.7-4.5-0.2 1.6 0.3 3.1 1.7 4.5 2.2 0.3 4.3 0.7 6.5-0.1 7.7 0.4 15.5 1.1 23.2 1.1 3.8 0 5 1.2 4.9 5-0.1 9.5 0.1 19.1 0.2 28.6 0.9 0.9 1.3 1.8 1.3 2.8 0-0.9-0.4-1.8-1.3-2.8v5.5c0 0.8-0.1 1.6-0.1 2.3-2.7 2.7-5.9 1.7-8.9 1.7z m12.1-52.1c0.4 0 0.8 0 1.1-0.1-0.3 0-0.7 0.1-1.1 0.1z m25 2.6v0z m8-2.5c0.9 0.1 1.8 0.1 2.7 0.1-0.9 0-1.8-0.1-2.7-0.1z m-24.1 7.9c-0.5-0.1-1-0.1-1.5-0.2 0.5 0.1 1 0.1 1.5 0.2z m-11.5 55.4c0.1 0 0.2-0.1 0.2-0.1-0.1 0-0.2 0.1-0.2 0.1-0.1-0.1-0.2-0.3-0.3-0.4 0.1 0.1 0.2 0.3 0.3 0.4z m-13.6-58.2s0.1 0 0 0c0.1 0 0 0 0 0z m0.6 0z m40.5 49.1v0z m0.1-0.7c3.1-0.4 6.2-0.1 9.4 0-3.2-0.1-6.3-0.4-9.4 0z m21.3-1.5c-10.4 0-20.9-0.1-31.3 0.1-3.8 0.1-5-1.1-4.9-4.9 0.2-12.7 0.2-25.3 0.3-38-0.1-0.5-0.1-0.9-0.2-1.4h-0.4 0.4c0.1 0.5 0.1 0.9 0.2 1.4 10.4-0.3 20.9-0.5 31.3-1 3.8-0.2 5 1.1 5 4.9-0.1 12.5 0 24.9 0.1 37.4 0.4 0 0.7 0 1.1-0.1v-32.4 32.4l0.2 0.2c-0.7 0.6-1.2 1-1.8 1.4z m5.5-50.9v0z m-1.3 45.5c0.1 1.6 0.2 3.3-1.9 4 2.1-0.6 2-2.3 1.9-4z m0.1-45.7z m3.9-2.6c-0.8 0.3-1.8 0.2-2.7 0.2v0c0.9 0 1.8 0 2.7-0.2z m-5.4 0.2h-2.7c-3.5 1.1-7.1 1.6-10.6 1.6 3.5 0 7.1-0.5 10.6-1.6h2.7z m-42.9-2.7H458c0.1 2.5-0.7 3.5-1.9 3.9 1.1-0.4 1.9-1.4 1.9-3.9h2.7zM543.9 569.4c0-1.2 0.4-2.8-1.5-3.2h-7.6c-2.5 0.8-1.6 2.9-1.6 4.5 0 13.9 0 27.7 0.1 41.6 0 1.5-0.4 3.2 1.3 4.2 2.6 1 5.2 0.5 7.8 0.3 1.9-0.4 1.5-2 1.5-3.2v-44.2z m-3.1-0.3c-0.2 0-0.5-0.1-0.7 0 0.2-0.1 0.5 0 0.7 0z m-5.5 3.5c0.3-0.1 0.6-0.3 0.9-0.5-0.3 0.2-0.6 0.4-0.9 0.5z m3-2.5c0.6-0.5 1.1-0.9 1.9-1-0.8 0-1.4 0.5-1.9 1zM455.2 559.1c2.2 2.3 4.4 4.6 6.6 7 3.5 2.6 7 1.1 11.5 0.7-1.9-2.7-3.2-4.6-4.6-6.4-1.6-2.8-3.1-5.6-6.4-6.8l-0.1-0.1c-2.2-3.8-7-3.5-9.8-6.3-1.5-1.8-3.7-1.2-5.6-1.8-18.3-6.4-39.5 9.5-43.4 24.6-4.3 16.4 0.6 29.3 12.7 40.2 0.2-1.6 1-2.2 1.9-2.4-0.9 0.2-1.7 0.8-1.9 2.4 0.9 0.5 1.9 1 2.8 1.5 2.9-0.5 5.9-1.6 8.8-1.5-2.9-0.1-5.9 1-8.8 1.5 3.1 2.4 6.4 4.5 10.5 4.2 6.4 3.3 12.7 2.7 19-0.1h0.6l0.5-0.2c7.5-2.4 13.9-6.5 18.5-13.1 1.4-2.1 5.3-4.4 1.8-7.1-2.8-2.2-7-2.6-9.3 1-3.1 4.6-7.9 6.8-11.9 10.1-1 0.4-1.9 0.8-2.9 1.2-0.1 1.4-0.8 2.4-2.1 2.6 1.3-0.3 2-1.2 2.1-2.6-4.5 0.1-9.1 0.1-13.6 0.2-1.3-0.6-3.1 0.4-4.1-1.3-8.9-5.3-15.1-12.7-17.5-23 0.1-3.1 0.3-6.2 0.4-9.3-0.1 0-0.1 0.1-0.1 0.1 0.5-0.4 0.9-0.8 1.4-1.2 5.8-13.6 16.1-20 30.8-19.4 4.2 1.7 8.2 3.5 12.2 5.3 0.2-3.4 2.3-4.5 4.7-5.1-2.5 0.6-4.5 1.8-4.7 5.1z m-25.4 55.2c-0.1 0.1 0 0 0 0zM805.5 587.4c-1.2-8.4-4.5-15.3-13.2-18.3l-1.5-0.3c-2.6-4.7-6.9-2.6-10.6-2.6h-1.4l-2.7 1.2 2.7-1.2c-3.2 0.6-7.2-2.6-9.5 2.1-5.2 1.1-9.2 4-12.1 8.4-8.2 12.4-4.8 26.4 7.5 35.6 8.7 6.5 17.1 6.4 26.3 2.2 3.4-1.4 7.2-2.3 8-6.8 1.6-2.6 5-4.2 4.2-8-1.4 0-2.8-0.1-4.2-0.1 1.4 0 2.8 0.1 4.2 0.1 5-3.3 1.8-8.2 2.3-12.3z m-9.8-13.7c-0.4-0.2-0.7-0.3-1.1-0.5 0.4 0.2 0.7 0.3 1.1 0.5z m-0.5 1.1c-0.2-0.1-0.4-0.1-0.6-0.2 0.2 0 0.4 0.1 0.6 0.2z m-0.6-1.6l-0.3 0.6 0.3-0.6z m-11.7-3.2v-0.8 0.8z m2.5 1.9c-0.3-0.2-0.6-0.4-0.9-0.7 0.3 0.3 0.6 0.5 0.9 0.7z m-2.5-4.4c-0.8-0.4-1.7-0.8-2.5-1.2 0.8 0.4 1.6 0.8 2.5 1.2z m-7.3 0.5c-0.3 0.2-0.6 0.4-1 0.5-0.2 0.1-0.5 0.1-0.8 0.1 0.3 0 0.5-0.1 0.8-0.1 0.4-0.1 0.7-0.2 1-0.5z m0.7 40.7c-8.4-1.9-14.4-8.6-14.8-16.9-0.4-9.4 3.3-14.7 12.7-17.6 2.3-0.7 4.8-0.9 7.2-1.4 6.4 2.2 12.3 5.2 14.7 12 2.7 7.6 0.5 14.2-5 19.9l-0.3 0.2c-1.5 0.2-2.1 1.4-2.7 2.5-3.9 0.4-7.6 2.3-11.8 1.3z m18.3-4c1.2-0.6 2-1.9 2.8-3.2-0.8 1.2-1.6 2.5-2.8 3.2zM643.3 576.7c0-1.4-0.3-2.8-1.5-3.7-0.5-2.3-2.4-1.4-3.7-1.7-1.1-4.1-4.3-5.2-8-5.3-4.4-0.1-8.9 0-13.3 0-8.4 0-9.5 1.3-7.6 9.8 10-3.3 18.6-2.5 24.3 2.5 0.2 0.8 0.4 1.7 0.6 2.5 0.3 1.8 0.7 3.5 1 5.3-1 0.1-2.2-0.1-2.6 1.2-0.4 0.1-0.8 0.2-1.3 0.3-3.3-2.6-7.1-1.4-10.8-1.3-2.7-0.2-5.6-1-7.9 1.3-1.4-0.3-1.9 1.1-2.9 1.5 0.5 0.8 0.9 1.6 1.3 2.4-3.2 1.2-4.2 3.5-4.7 6 0.5-2.5 1.5-4.8 4.7-6-0.4-0.8-0.9-1.6-1.3-2.4-5.8 3.9-6.3 9.5-5.2 15.7-0.9 4.6 3.4 6.4 5.1 9.6 0.5 1.4 1.7 1.2 2.7 1.3 3.4 2.6 7.2 0.7 10.8 1 0.1-0.2 0.1-0.5 0.2-0.7 0.1-0.4 0-0.8-0.1-1.1 0.1 0.3 0.1 0.7 0.1 1.1 0 0.2-0.1 0.4-0.2 0.7 5.3 0.6 10.7-4.8 16 0 2.2 0 5.1 1.6 5.3-2.5 0-11.2-0.1-22.4-0.1-33.6h-1 1c0.6-1.4 0.2-2.8-0.9-3.9z m-5.9 18.6c0.1 0.2 0.2 0.4 0.2 0.6-0.1-0.2-0.1-0.4-0.2-0.6z m-1.4 9.4l-0.1-0.1c0 0.1 0 0.1 0.1 0.1z m1.4 3.9c-0.2-1.2-0.4-2.4-1.1-3.4 0.7 1 1 2.2 1.1 3.4z m-24.9-19.8c-0.1 0.8-0.3 1.6-0.8 2.2 0.5-0.6 0.7-1.4 0.8-2.2z m6.5 21.5h-6.8 6.8c-0.1 1.9 2 2.5 3.3 3.6-1.2-1.1-3.4-1.6-3.3-3.6z m5.2-0.2c0.5-0.2 1-0.4 1.4-0.9-0.4 0.5-0.9 0.8-1.4 0.9z m8.2-4.1c-1.8 0.9-3.6 1.8-5.4 2.8-0.5-0.1-0.8 0-1.1 0.4-2.3 0-4.5-0.1-6.8-0.1-1.3-0.9-2.6-1.9-3.9-2.8-0.3-2.2-0.5-4.5-0.8-6.7 0.7-1.4 1.4-2.7 2-4.1 0.5-0.4 1-0.8 1.6-1.2 4.9 0 9.8 0 14.6 0.1 0-0.5 0-0.9-0.1-1.4h-11.9 11.9c0 0.5 0 0.9 0.1 1.4 0.6 0.3 1.1 0.6 1.7 0.9l0.3 0.1 0.6 6.9c-0.2 0.5-0.4 1-0.5 1.4-0.9 0.7-1.6 1.5-2.3 2.3z" fill="#048ED1"></path><path d="M502.3 467.8c-0.4 0.1-0.7 0.1-1.1 0.1-0.1 0.5-0.3 0.9-0.4 1.4 0.6-0.4 1.1-0.9 1.7-1.3l-0.2-0.2zM629.8 481.7h-10.7c-4-0.9-8.1 0.7-12-1.1 0.1-0.3-0.1-0.5-0.3-0.6 0.1-8.4 0.2-16.8 0.4-25.2 1.7-0.1 3.5-0.2 5.2-0.3H625.8c3.4-0.4 8.1 2.7 8.4-4.6 0.3-7.1-4-5.9-8.1-5.9h-4c-15.6 0-15.6 0-15.3-15.8 0.1-0.5 0.1-0.9 0.2-1.4-0.1 0.5-0.1 0.9-0.2 1.4 4.2-0.1 8.4-0.1 12.5-0.4 5.6-0.4 11.3 1.3 16.7-1.3 1.3-10.6 1.3-10.6-8.7-10.6h-53c-9.3 0-9.3 0-8.8 9.3 0.8 0 1.6-0.1 2.4-0.1-0.2-0.7-0.3-1.4-0.5-2.1 0.2 0.7 0.3 1.4 0.5 2.1-0.8 0-1.6 0.1-2.4 0.1v1.3c1.2 2.6 3.5 1.2 5.3 1.3 8 0.2 16 0.2 24 0.3 0.1 4 0.2 7.9 0.2 11.9 0.5 1.4 1.2 2.8 1.5 4.1-0.3-1.4-1-2.8-1.5-4.1-0.1 3-1.5 4.2-4.6 4.1-6-0.2-12-0.2-18 0-1.8 0-5-1.3-4.4 2.8-0.3 0.4-0.3 0.8 0 1.1v4c-0.5 4.1 2.6 2.6 4.4 2.7 7.4 0.3 14.9 0.3 22.3 0.5 0.1 6.9-0.1 13.8 0.3 20.6 0.2 4.3-1.3 6-5.7 5.8-7.8-0.2-15.5 0-23.3-0.1-2.4 0-3.5 0.3-1.8 2.7v5.4c-2.3 4 1.2 2.6 2.6 2.6 22.3 0.1 44.7 0 67 0.1 3.2 0 4.5-0.5 5-4.2 1.2-8.8-4.4-6.7-9-6.4z m-21.4-56.8c-0.1-1-0.1-1.9 0-2.6-0.1 0.7-0.2 1.5 0 2.6 5.7 0.8 11.7-0.7 17.4 0.3-5.8-1.1-11.7 0.5-17.4-0.3z m-5.4 29.7h2.7c0.3 3.7 0 7.3-0.1 11 0.1-3.7 0.4-7.4 0.1-11H603z m2.6-31.1c0 0.3 0.1 0.6 0.1 0.9 0-0.3 0-0.6-0.1-0.9z m0.6 2.2c0.2 0.3 0.5 0.6 0.8 0.8-0.3-0.3-0.6-0.5-0.8-0.8z m-12.1-8.6h-1.9 1.9z m-19.7 3c-0.1 0.1-0.1 0.1-0.2 0.1 0.1 0 0.2 0 0.2-0.1z m-0.3 0.2c-0.1 0-0.2 0-0.3-0.1 0.1 0 0.2 0.1 0.3 0.1z m0.6-0.6h12.1-12.1z m14.8 0z m2.3-1c-0.1 0.1-0.1 0.2-0.2 0.2 0-0.1 0.1-0.1 0.2-0.2z m-0.3 0.3l-0.2 0.2c0-0.1 0.1-0.1 0.2-0.2z m-0.4 0.3s-0.1 0-0.1 0.1c0-0.1 0-0.1 0.1-0.1z m-2.3 1.2c-0.1 0.1-0.2 0.1-0.3 0.2 0.1-0.1 0.2-0.1 0.3-0.2z m-20.7-3.2c-0.2 0.1-0.3 0.2-0.5 0.3 0.2-0.1 0.4-0.2 0.5-0.3z m26.8 31.7c0-0.4 0-0.8-0.1-1.2 0.1 0.4 0.1 0.8 0.1 1.2z m-1.3-1.1c-0.2 0.2-0.4 0.4-0.6 0.5 0.2-0.2 0.4-0.4 0.6-0.5-0.4-0.9-0.9-1.8-1.3-2.7 0.4 0.9 0.8 1.8 1.3 2.7z m-0.6 0.5c-0.6 0.7-1 1.3-1.2 1.9 0.2-0.6 0.6-1.2 1.2-1.9z m-17.7-1c-0.1 0.1-0.2 0.1-0.3 0.2 0.1 0 0.2-0.1 0.3-0.2z m-0.4 0.2c-0.1 0-0.2 0.1-0.3 0.1 0.1 0 0.2 0 0.3-0.1z m1.1-1c2.4 0 4.9-0.3 7.2 0.3-2.3-0.6-4.7-0.3-7.2-0.3z m9.5 1.3c0.4-0.3 0.9-0.5 1.3-0.7-0.4 0.1-0.9 0.3-1.3 0.7z m-12.8-0.7c0 0.1 0.1 0.2 0.1 0.3 0-0.1 0-0.2-0.1-0.3z m0.2 0.3c0.1 0.1 0.3 0.2 0.5 0.3-0.2 0-0.4-0.1-0.5-0.3z m9.2 5.8H581c-2.7 0-5.1-0.3-6.7-3.3 1.5 3 4 3.4 6.7 3.3h1.1c0.4 0 0.7 0 1.1-0.1-0.4 0.1-0.8 0.1-1.1 0.1z m6.9-6.8l-0.9 0.3c0.4-0.1 0.7-0.2 0.9-0.3 0.7-0.3 1.4-0.6 1.9-1.3-0.5 0.7-1.1 1-1.9 1.3z m2.7 4.9c0-0.3 0-0.6 0.1-0.9-0.1 0.3-0.1 0.6-0.1 0.9 0 0.3 0.1 0.6 0.2 0.9-0.1-0.3-0.1-0.6-0.2-0.9z m0.8 1.7c0.2 0.3 0.5 0.5 0.8 0.8l-0.8-0.8z" fill="#048ED1"></path><path d="M621.7 458.7c-4.2-4.7-6.7 0.2-9.3 2-3.3 2.3 0 4.1 1.4 5.8 2.1 2.6 4.5 5 6.2 7.8 1.6 2.6 3.4 3.3 6 2.3 2.8-1 6.1-1.7 5-6-2.2-4.7-5.6-8.3-9.3-11.9z" fill="#048ED1"></path><path d="M330.7 553.5c-13.1-15.5-26.8-30.4-41.5-44.2-6.6-6.2-12.9-12.8-20.9-17.4-6.7-3.9-12.7-3.1-18.5 1.6-9.7 7.7-18 17-27.5 25-14.9 12.5-27.8 27.6-44.7 37.5-13.1 7.7-20 8.9-34.8-3.3-25.8-21.3-48.6-45.7-69.9-71.4-2.2-2.7-1.7-5.4-0.7-8.1 1.2-3.1 2.8-5 5.9-1.2 7 8.3 14.2 16.5 21.4 24.6 10.7 12 22.9 22.4 35 32.8 6.1 5.3 16.9 4.5 22.8-0.8 21.7-19.7 43.3-39.4 65.1-59 12.6-11.4 29.3-10.6 43.5 2.1 22 19.7 43 40.5 61.9 63.3 7.9 9.4 8 10 2.9 18.5z" fill="#8BC63E"></path></svg>